<mxfile host="app.diagrams.net" modified="2023-07-31T23:53:08.509Z" agent="Mozilla/5.0 (Windows NT 10.0; Win64; x64) AppleWebKit/537.36 (KHTML, like Gecko) Chrome/114.0.0.0 Safari/537.36" etag="1nnG4K8Rlax4GgrjZwWf" version="21.6.5" type="device">
  <diagram id="C5RBs43oDa-KdzZeNtuy" name="Page-1">
    <mxGraphModel dx="2632" dy="1662" grid="1" gridSize="10" guides="1" tooltips="1" connect="1" arrows="1" fold="1" page="1" pageScale="1" pageWidth="827" pageHeight="1169" math="0" shadow="0">
      <root>
        <mxCell id="WIyWlLk6GJQsqaUBKTNV-0" />
        <mxCell id="WIyWlLk6GJQsqaUBKTNV-1" parent="WIyWlLk6GJQsqaUBKTNV-0" />
        <mxCell id="gT47b8apnjhMk8HdocSW-22" style="edgeStyle=orthogonalEdgeStyle;rounded=0;orthogonalLoop=1;jettySize=auto;html=1;exitX=0;exitY=0.25;exitDx=0;exitDy=0;entryX=1;entryY=0.25;entryDx=0;entryDy=0;" parent="WIyWlLk6GJQsqaUBKTNV-1" source="gT47b8apnjhMk8HdocSW-15" target="gT47b8apnjhMk8HdocSW-19" edge="1">
          <mxGeometry relative="1" as="geometry" />
        </mxCell>
        <mxCell id="gT47b8apnjhMk8HdocSW-23" style="edgeStyle=orthogonalEdgeStyle;rounded=0;orthogonalLoop=1;jettySize=auto;html=1;exitX=0;exitY=0.75;exitDx=0;exitDy=0;entryX=1;entryY=0.75;entryDx=0;entryDy=0;" parent="WIyWlLk6GJQsqaUBKTNV-1" source="gT47b8apnjhMk8HdocSW-15" target="gT47b8apnjhMk8HdocSW-19" edge="1">
          <mxGeometry relative="1" as="geometry" />
        </mxCell>
        <mxCell id="gT47b8apnjhMk8HdocSW-15" value="" style="rounded=1;whiteSpace=wrap;html=1;dashed=1;strokeWidth=2;arcSize=4;" parent="WIyWlLk6GJQsqaUBKTNV-1" vertex="1">
          <mxGeometry x="-230" y="-50" width="590" height="450" as="geometry" />
        </mxCell>
        <mxCell id="wOG3MdBMStgTPQe6K9Qt-1" style="edgeStyle=orthogonalEdgeStyle;rounded=0;orthogonalLoop=1;jettySize=auto;html=1;entryX=0;entryY=0.5;entryDx=0;entryDy=0;" parent="WIyWlLk6GJQsqaUBKTNV-1" source="WIyWlLk6GJQsqaUBKTNV-3" target="WIyWlLk6GJQsqaUBKTNV-7" edge="1">
          <mxGeometry relative="1" as="geometry" />
        </mxCell>
        <mxCell id="WIyWlLk6GJQsqaUBKTNV-3" value="Client" style="rounded=1;whiteSpace=wrap;html=1;fontSize=12;glass=0;strokeWidth=1;shadow=0;" parent="WIyWlLk6GJQsqaUBKTNV-1" vertex="1">
          <mxGeometry x="-190" y="50" width="120" height="40" as="geometry" />
        </mxCell>
        <mxCell id="WIyWlLk6GJQsqaUBKTNV-4" value="Yes" style="rounded=0;html=1;jettySize=auto;orthogonalLoop=1;fontSize=11;endArrow=block;endFill=0;endSize=8;strokeWidth=1;shadow=0;labelBackgroundColor=none;edgeStyle=orthogonalEdgeStyle;" parent="WIyWlLk6GJQsqaUBKTNV-1" edge="1">
          <mxGeometry y="20" relative="1" as="geometry">
            <mxPoint as="offset" />
            <mxPoint x="220" y="250" as="sourcePoint" />
          </mxGeometry>
        </mxCell>
        <mxCell id="wOG3MdBMStgTPQe6K9Qt-2" style="edgeStyle=orthogonalEdgeStyle;rounded=0;orthogonalLoop=1;jettySize=auto;html=1;entryX=0.5;entryY=0;entryDx=0;entryDy=0;" parent="WIyWlLk6GJQsqaUBKTNV-1" source="WIyWlLk6GJQsqaUBKTNV-7" target="WIyWlLk6GJQsqaUBKTNV-12" edge="1">
          <mxGeometry relative="1" as="geometry" />
        </mxCell>
        <mxCell id="WIyWlLk6GJQsqaUBKTNV-7" value="RestAPI" style="rounded=1;whiteSpace=wrap;html=1;fontSize=12;glass=0;strokeWidth=1;shadow=0;" parent="WIyWlLk6GJQsqaUBKTNV-1" vertex="1">
          <mxGeometry y="50" width="120" height="40" as="geometry" />
        </mxCell>
        <mxCell id="wOG3MdBMStgTPQe6K9Qt-5" style="edgeStyle=orthogonalEdgeStyle;rounded=0;orthogonalLoop=1;jettySize=auto;html=1;" parent="WIyWlLk6GJQsqaUBKTNV-1" source="WIyWlLk6GJQsqaUBKTNV-11" edge="1">
          <mxGeometry relative="1" as="geometry">
            <mxPoint x="60" y="340" as="targetPoint" />
          </mxGeometry>
        </mxCell>
        <mxCell id="WIyWlLk6GJQsqaUBKTNV-11" value="Interface&lt;br&gt;Prisma ORM" style="rounded=1;whiteSpace=wrap;html=1;fontSize=12;glass=0;strokeWidth=1;shadow=0;arcSize=13;" parent="WIyWlLk6GJQsqaUBKTNV-1" vertex="1">
          <mxGeometry y="240" width="120" height="40" as="geometry" />
        </mxCell>
        <mxCell id="wOG3MdBMStgTPQe6K9Qt-3" style="edgeStyle=orthogonalEdgeStyle;rounded=0;orthogonalLoop=1;jettySize=auto;html=1;" parent="WIyWlLk6GJQsqaUBKTNV-1" source="WIyWlLk6GJQsqaUBKTNV-12" target="WIyWlLk6GJQsqaUBKTNV-11" edge="1">
          <mxGeometry relative="1" as="geometry" />
        </mxCell>
        <mxCell id="WIyWlLk6GJQsqaUBKTNV-12" value="LOGIC" style="rounded=1;whiteSpace=wrap;html=1;fontSize=12;glass=0;strokeWidth=1;shadow=0;" parent="WIyWlLk6GJQsqaUBKTNV-1" vertex="1">
          <mxGeometry y="150" width="120" height="40" as="geometry" />
        </mxCell>
        <mxCell id="wOG3MdBMStgTPQe6K9Qt-0" value="MongoDB" style="rounded=1;whiteSpace=wrap;html=1;fontSize=12;glass=0;strokeWidth=1;shadow=0;" parent="WIyWlLk6GJQsqaUBKTNV-1" vertex="1">
          <mxGeometry y="340" width="120" height="40" as="geometry" />
        </mxCell>
        <mxCell id="gT47b8apnjhMk8HdocSW-1" value="Authentication/Authorization" style="text;html=1;strokeColor=none;fillColor=none;align=center;verticalAlign=middle;whiteSpace=wrap;rounded=0;" parent="WIyWlLk6GJQsqaUBKTNV-1" vertex="1">
          <mxGeometry x="30" y="-40" width="60" height="30" as="geometry" />
        </mxCell>
        <mxCell id="gT47b8apnjhMk8HdocSW-2" value="" style="endArrow=none;dashed=1;html=1;dashPattern=1 3;strokeWidth=2;rounded=0;exitX=0.5;exitY=0;exitDx=0;exitDy=0;" parent="WIyWlLk6GJQsqaUBKTNV-1" source="WIyWlLk6GJQsqaUBKTNV-7" target="gT47b8apnjhMk8HdocSW-1" edge="1">
          <mxGeometry width="50" height="50" relative="1" as="geometry">
            <mxPoint x="50" y="40" as="sourcePoint" />
            <mxPoint x="100" y="-10" as="targetPoint" />
          </mxGeometry>
        </mxCell>
        <mxCell id="gT47b8apnjhMk8HdocSW-3" value="" style="endArrow=none;dashed=1;html=1;dashPattern=1 3;strokeWidth=2;rounded=0;entryX=1;entryY=0.5;entryDx=0;entryDy=0;" parent="WIyWlLk6GJQsqaUBKTNV-1" target="WIyWlLk6GJQsqaUBKTNV-7" edge="1">
          <mxGeometry width="50" height="50" relative="1" as="geometry">
            <mxPoint x="190" y="70" as="sourcePoint" />
            <mxPoint x="140" y="70" as="targetPoint" />
          </mxGeometry>
        </mxCell>
        <mxCell id="gT47b8apnjhMk8HdocSW-4" value="Tratamento de exceções" style="text;html=1;strokeColor=none;fillColor=none;align=center;verticalAlign=middle;whiteSpace=wrap;rounded=0;" parent="WIyWlLk6GJQsqaUBKTNV-1" vertex="1">
          <mxGeometry x="190" y="55" width="100" height="30" as="geometry" />
        </mxCell>
        <mxCell id="gT47b8apnjhMk8HdocSW-6" value="" style="endArrow=none;dashed=1;html=1;dashPattern=1 3;strokeWidth=2;rounded=0;entryX=1;entryY=0.5;entryDx=0;entryDy=0;" parent="WIyWlLk6GJQsqaUBKTNV-1" edge="1">
          <mxGeometry width="50" height="50" relative="1" as="geometry">
            <mxPoint x="190" y="169.72" as="sourcePoint" />
            <mxPoint x="120" y="169.72" as="targetPoint" />
          </mxGeometry>
        </mxCell>
        <mxCell id="gT47b8apnjhMk8HdocSW-7" value="Regras de negócio" style="text;html=1;strokeColor=none;fillColor=none;align=center;verticalAlign=middle;whiteSpace=wrap;rounded=0;" parent="WIyWlLk6GJQsqaUBKTNV-1" vertex="1">
          <mxGeometry x="180" y="155" width="100" height="30" as="geometry" />
        </mxCell>
        <mxCell id="gT47b8apnjhMk8HdocSW-8" value="Queries" style="text;html=1;strokeColor=none;fillColor=none;align=center;verticalAlign=middle;whiteSpace=wrap;rounded=0;" parent="WIyWlLk6GJQsqaUBKTNV-1" vertex="1">
          <mxGeometry x="170" y="245" width="100" height="30" as="geometry" />
        </mxCell>
        <mxCell id="gT47b8apnjhMk8HdocSW-10" value="Collections" style="text;html=1;strokeColor=none;fillColor=none;align=center;verticalAlign=middle;whiteSpace=wrap;rounded=0;" parent="WIyWlLk6GJQsqaUBKTNV-1" vertex="1">
          <mxGeometry x="180" y="345" width="100" height="30" as="geometry" />
        </mxCell>
        <mxCell id="gT47b8apnjhMk8HdocSW-12" value="" style="endArrow=none;dashed=1;html=1;dashPattern=1 3;strokeWidth=2;rounded=0;entryX=1;entryY=0.5;entryDx=0;entryDy=0;" parent="WIyWlLk6GJQsqaUBKTNV-1" edge="1">
          <mxGeometry width="50" height="50" relative="1" as="geometry">
            <mxPoint x="190" y="259.72" as="sourcePoint" />
            <mxPoint x="120" y="259.72" as="targetPoint" />
          </mxGeometry>
        </mxCell>
        <mxCell id="gT47b8apnjhMk8HdocSW-13" value="" style="endArrow=none;dashed=1;html=1;dashPattern=1 3;strokeWidth=2;rounded=0;entryX=1;entryY=0.5;entryDx=0;entryDy=0;" parent="WIyWlLk6GJQsqaUBKTNV-1" edge="1">
          <mxGeometry width="50" height="50" relative="1" as="geometry">
            <mxPoint x="190" y="359.72" as="sourcePoint" />
            <mxPoint x="120" y="359.72" as="targetPoint" />
          </mxGeometry>
        </mxCell>
        <mxCell id="gT47b8apnjhMk8HdocSW-14" value="Arquitetura" style="swimlane;whiteSpace=wrap;html=1;" parent="WIyWlLk6GJQsqaUBKTNV-1" vertex="1">
          <mxGeometry x="-900" y="-120" width="1290" height="1130" as="geometry" />
        </mxCell>
        <mxCell id="gT47b8apnjhMk8HdocSW-94" style="edgeStyle=orthogonalEdgeStyle;rounded=0;orthogonalLoop=1;jettySize=auto;html=1;entryX=0.5;entryY=0;entryDx=0;entryDy=0;" parent="gT47b8apnjhMk8HdocSW-14" source="gT47b8apnjhMk8HdocSW-19" target="gT47b8apnjhMk8HdocSW-90" edge="1">
          <mxGeometry relative="1" as="geometry" />
        </mxCell>
        <mxCell id="gT47b8apnjhMk8HdocSW-19" value="" style="rounded=1;whiteSpace=wrap;html=1;dashed=1;strokeWidth=2;arcSize=6;" parent="gT47b8apnjhMk8HdocSW-14" vertex="1">
          <mxGeometry x="50" y="100" width="340" height="380" as="geometry" />
        </mxCell>
        <mxCell id="gT47b8apnjhMk8HdocSW-20" value="Oracle Cloud VM" style="text;html=1;strokeColor=none;fillColor=none;align=center;verticalAlign=middle;whiteSpace=wrap;rounded=0;fontStyle=1;fontSize=14;" parent="gT47b8apnjhMk8HdocSW-14" vertex="1">
          <mxGeometry x="680" y="80" width="100" height="30" as="geometry" />
        </mxCell>
        <mxCell id="gT47b8apnjhMk8HdocSW-21" value="Oracle Cloud VCN" style="text;html=1;strokeColor=none;fillColor=none;align=center;verticalAlign=middle;whiteSpace=wrap;rounded=0;fontStyle=1;fontSize=14;" parent="gT47b8apnjhMk8HdocSW-14" vertex="1">
          <mxGeometry x="70" y="110" width="100" height="30" as="geometry" />
        </mxCell>
        <mxCell id="gT47b8apnjhMk8HdocSW-24" value="Public Subnet" style="rounded=1;whiteSpace=wrap;html=1;fontSize=12;glass=0;strokeWidth=1;shadow=0;" parent="gT47b8apnjhMk8HdocSW-14" vertex="1">
          <mxGeometry x="90" y="150" width="260" height="120" as="geometry" />
        </mxCell>
        <mxCell id="gT47b8apnjhMk8HdocSW-25" value="Private Subnet" style="rounded=1;whiteSpace=wrap;html=1;fontSize=12;glass=0;strokeWidth=1;shadow=0;" parent="gT47b8apnjhMk8HdocSW-14" vertex="1">
          <mxGeometry x="90" y="330" width="260" height="120" as="geometry" />
        </mxCell>
        <mxCell id="gT47b8apnjhMk8HdocSW-26" value="Route Table" style="swimlane;fontStyle=0;childLayout=stackLayout;horizontal=1;startSize=30;horizontalStack=0;resizeParent=1;resizeParentMax=0;resizeLast=0;collapsible=1;marginBottom=0;whiteSpace=wrap;html=1;" parent="gT47b8apnjhMk8HdocSW-14" vertex="1">
          <mxGeometry x="266" y="166" width="70" height="90" as="geometry" />
        </mxCell>
        <mxCell id="gT47b8apnjhMk8HdocSW-27" value="0.0.0.0/0" style="text;strokeColor=none;fillColor=none;align=left;verticalAlign=middle;spacingLeft=4;spacingRight=4;overflow=hidden;points=[[0,0.5],[1,0.5]];portConstraint=eastwest;rotatable=0;whiteSpace=wrap;html=1;" parent="gT47b8apnjhMk8HdocSW-26" vertex="1">
          <mxGeometry y="30" width="70" height="30" as="geometry" />
        </mxCell>
        <mxCell id="gT47b8apnjhMk8HdocSW-28" value="Item 2" style="text;strokeColor=none;fillColor=none;align=left;verticalAlign=middle;spacingLeft=4;spacingRight=4;overflow=hidden;points=[[0,0.5],[1,0.5]];portConstraint=eastwest;rotatable=0;whiteSpace=wrap;html=1;" parent="gT47b8apnjhMk8HdocSW-26" vertex="1">
          <mxGeometry y="60" width="70" height="30" as="geometry" />
        </mxCell>
        <mxCell id="gT47b8apnjhMk8HdocSW-33" value="Route Table" style="swimlane;fontStyle=0;childLayout=stackLayout;horizontal=1;startSize=30;horizontalStack=0;resizeParent=1;resizeParentMax=0;resizeLast=0;collapsible=1;marginBottom=0;whiteSpace=wrap;html=1;" parent="gT47b8apnjhMk8HdocSW-14" vertex="1">
          <mxGeometry x="266" y="345" width="70" height="90" as="geometry" />
        </mxCell>
        <mxCell id="gT47b8apnjhMk8HdocSW-34" value="Item 1" style="text;strokeColor=none;fillColor=none;align=left;verticalAlign=middle;spacingLeft=4;spacingRight=4;overflow=hidden;points=[[0,0.5],[1,0.5]];portConstraint=eastwest;rotatable=0;whiteSpace=wrap;html=1;" parent="gT47b8apnjhMk8HdocSW-33" vertex="1">
          <mxGeometry y="30" width="70" height="30" as="geometry" />
        </mxCell>
        <mxCell id="gT47b8apnjhMk8HdocSW-35" value="Item 2" style="text;strokeColor=none;fillColor=none;align=left;verticalAlign=middle;spacingLeft=4;spacingRight=4;overflow=hidden;points=[[0,0.5],[1,0.5]];portConstraint=eastwest;rotatable=0;whiteSpace=wrap;html=1;" parent="gT47b8apnjhMk8HdocSW-33" vertex="1">
          <mxGeometry y="60" width="70" height="30" as="geometry" />
        </mxCell>
        <mxCell id="gT47b8apnjhMk8HdocSW-88" value="" style="rounded=1;whiteSpace=wrap;html=1;dashed=1;strokeWidth=2;arcSize=6;" parent="gT47b8apnjhMk8HdocSW-14" vertex="1">
          <mxGeometry x="420" y="160" width="210" height="270" as="geometry" />
        </mxCell>
        <mxCell id="gT47b8apnjhMk8HdocSW-89" value="Oracle Cloud Load Balancer" style="text;html=1;strokeColor=none;fillColor=none;align=center;verticalAlign=middle;whiteSpace=wrap;rounded=0;fontStyle=1;fontSize=14;" parent="gT47b8apnjhMk8HdocSW-14" vertex="1">
          <mxGeometry x="470" y="280" width="110" height="30" as="geometry" />
        </mxCell>
        <mxCell id="gT47b8apnjhMk8HdocSW-90" value="" style="rounded=1;whiteSpace=wrap;html=1;dashed=1;strokeWidth=2;arcSize=6;" parent="gT47b8apnjhMk8HdocSW-14" vertex="1">
          <mxGeometry x="50" y="510" width="340" height="450" as="geometry" />
        </mxCell>
        <mxCell id="gT47b8apnjhMk8HdocSW-91" value="Oracle Cloud Object Storage" style="text;html=1;strokeColor=none;fillColor=none;align=center;verticalAlign=middle;whiteSpace=wrap;rounded=0;fontStyle=1;fontSize=14;" parent="gT47b8apnjhMk8HdocSW-14" vertex="1">
          <mxGeometry x="70" y="530" width="110" height="30" as="geometry" />
        </mxCell>
        <mxCell id="gT47b8apnjhMk8HdocSW-95" value="Bucket&lt;br&gt;- Images&lt;br&gt;- Backups" style="rounded=1;whiteSpace=wrap;html=1;fontSize=12;glass=0;strokeWidth=1;shadow=0;" parent="gT47b8apnjhMk8HdocSW-14" vertex="1">
          <mxGeometry x="90" y="610" width="260" height="290" as="geometry" />
        </mxCell>
        <mxCell id="gT47b8apnjhMk8HdocSW-37" value="Regra de negócio" style="swimlane;whiteSpace=wrap;html=1;fontSize=10;labelBackgroundColor=none;startSize=23;" parent="WIyWlLk6GJQsqaUBKTNV-1" vertex="1">
          <mxGeometry x="430" y="-120" width="1180" height="1230" as="geometry" />
        </mxCell>
        <mxCell id="gT47b8apnjhMk8HdocSW-56" value="" style="rounded=1;whiteSpace=wrap;html=1;dashed=1;strokeWidth=2;arcSize=4;" parent="gT47b8apnjhMk8HdocSW-37" vertex="1">
          <mxGeometry x="30" y="50" width="1110" height="1130" as="geometry" />
        </mxCell>
        <mxCell id="gT47b8apnjhMk8HdocSW-39" value="Fornecedor &lt;br&gt;gera o código único" style="rounded=1;whiteSpace=wrap;html=1;fontSize=12;glass=0;strokeWidth=1;shadow=0;" parent="gT47b8apnjhMk8HdocSW-37" vertex="1">
          <mxGeometry x="520" y="100" width="120" height="40" as="geometry" />
        </mxCell>
        <mxCell id="gT47b8apnjhMk8HdocSW-41" value="Código é salvo na tabela GeneratedCodes MongoDB e associa o ID do fornecedor" style="rounded=1;whiteSpace=wrap;html=1;fontSize=12;glass=0;strokeWidth=1;shadow=0;" parent="gT47b8apnjhMk8HdocSW-37" vertex="1">
          <mxGeometry x="497.5" y="180" width="165" height="60" as="geometry" />
        </mxCell>
        <mxCell id="gT47b8apnjhMk8HdocSW-38" style="edgeStyle=orthogonalEdgeStyle;rounded=0;orthogonalLoop=1;jettySize=auto;html=1;entryX=0.5;entryY=0;entryDx=0;entryDy=0;" parent="gT47b8apnjhMk8HdocSW-37" source="gT47b8apnjhMk8HdocSW-39" target="gT47b8apnjhMk8HdocSW-41" edge="1">
          <mxGeometry relative="1" as="geometry" />
        </mxCell>
        <mxCell id="gT47b8apnjhMk8HdocSW-42" value="Cliente recebe e ativa o código" style="rounded=1;whiteSpace=wrap;html=1;fontSize=12;glass=0;strokeWidth=1;shadow=0;" parent="gT47b8apnjhMk8HdocSW-37" vertex="1">
          <mxGeometry x="515" y="310" width="130" height="60" as="geometry" />
        </mxCell>
        <mxCell id="gT47b8apnjhMk8HdocSW-40" style="edgeStyle=orthogonalEdgeStyle;rounded=0;orthogonalLoop=1;jettySize=auto;html=1;entryX=0.5;entryY=0;entryDx=0;entryDy=0;" parent="gT47b8apnjhMk8HdocSW-37" source="gT47b8apnjhMk8HdocSW-41" target="gT47b8apnjhMk8HdocSW-42" edge="1">
          <mxGeometry relative="1" as="geometry" />
        </mxCell>
        <mxCell id="gT47b8apnjhMk8HdocSW-45" value="Atualiza tabela GeneratedCodes: campo isActive" style="rounded=1;whiteSpace=wrap;html=1;fontSize=12;glass=0;strokeWidth=1;shadow=0;" parent="gT47b8apnjhMk8HdocSW-37" vertex="1">
          <mxGeometry x="810" y="580" width="130" height="60" as="geometry" />
        </mxCell>
        <mxCell id="gT47b8apnjhMk8HdocSW-48" value="Código é salvo em tabela RaffledCodes e associado ao cliente" style="rounded=1;whiteSpace=wrap;html=1;fontSize=12;glass=0;strokeWidth=1;shadow=0;" parent="gT47b8apnjhMk8HdocSW-37" vertex="1">
          <mxGeometry x="810" y="455" width="130" height="60" as="geometry" />
        </mxCell>
        <mxCell id="gT47b8apnjhMk8HdocSW-43" style="edgeStyle=orthogonalEdgeStyle;rounded=0;orthogonalLoop=1;jettySize=auto;html=1;entryX=0.5;entryY=0;entryDx=0;entryDy=0;" parent="gT47b8apnjhMk8HdocSW-37" source="gT47b8apnjhMk8HdocSW-48" target="gT47b8apnjhMk8HdocSW-45" edge="1">
          <mxGeometry relative="1" as="geometry" />
        </mxCell>
        <mxCell id="gT47b8apnjhMk8HdocSW-49" value="Avisa ao usuário que o código é inválido e encerra operação." style="rounded=1;whiteSpace=wrap;html=1;fontSize=12;glass=0;strokeWidth=1;shadow=0;" parent="gT47b8apnjhMk8HdocSW-37" vertex="1">
          <mxGeometry x="220" y="455" width="130" height="60" as="geometry" />
        </mxCell>
        <mxCell id="gT47b8apnjhMk8HdocSW-50" value="" style="edgeStyle=orthogonalEdgeStyle;rounded=0;orthogonalLoop=1;jettySize=auto;html=1;" parent="gT47b8apnjhMk8HdocSW-37" source="gT47b8apnjhMk8HdocSW-42" target="gT47b8apnjhMk8HdocSW-52" edge="1">
          <mxGeometry relative="1" as="geometry">
            <mxPoint x="580" y="540" as="targetPoint" />
            <mxPoint x="580" y="310" as="sourcePoint" />
          </mxGeometry>
        </mxCell>
        <mxCell id="gT47b8apnjhMk8HdocSW-51" value="Erro" style="edgeStyle=orthogonalEdgeStyle;rounded=0;orthogonalLoop=1;jettySize=auto;html=1;entryX=1;entryY=0.5;entryDx=0;entryDy=0;" parent="gT47b8apnjhMk8HdocSW-37" source="gT47b8apnjhMk8HdocSW-52" target="gT47b8apnjhMk8HdocSW-49" edge="1">
          <mxGeometry relative="1" as="geometry">
            <Array as="points">
              <mxPoint x="420" y="485" />
              <mxPoint x="420" y="485" />
            </Array>
          </mxGeometry>
        </mxCell>
        <mxCell id="gT47b8apnjhMk8HdocSW-52" value="Valida via API&lt;br&gt;se o código &lt;br&gt;é valido: se existe &lt;br&gt;e se não &lt;br&gt;foi utilizado" style="rhombus;whiteSpace=wrap;html=1;" parent="gT47b8apnjhMk8HdocSW-37" vertex="1">
          <mxGeometry x="462.5" y="425" width="235" height="120" as="geometry" />
        </mxCell>
        <mxCell id="gT47b8apnjhMk8HdocSW-46" value="" style="edgeStyle=orthogonalEdgeStyle;rounded=0;orthogonalLoop=1;jettySize=auto;html=1;" parent="gT47b8apnjhMk8HdocSW-37" source="gT47b8apnjhMk8HdocSW-52" target="gT47b8apnjhMk8HdocSW-48" edge="1">
          <mxGeometry relative="1" as="geometry">
            <mxPoint x="580" y="445" as="targetPoint" />
            <mxPoint x="580" y="365" as="sourcePoint" />
          </mxGeometry>
        </mxCell>
        <mxCell id="gT47b8apnjhMk8HdocSW-47" value="Sucesso" style="edgeLabel;html=1;align=center;verticalAlign=middle;resizable=0;points=[];" parent="gT47b8apnjhMk8HdocSW-46" vertex="1" connectable="0">
          <mxGeometry x="-0.2915" y="3" relative="1" as="geometry">
            <mxPoint as="offset" />
          </mxGeometry>
        </mxCell>
        <mxCell id="gT47b8apnjhMk8HdocSW-61" style="edgeStyle=orthogonalEdgeStyle;rounded=0;orthogonalLoop=1;jettySize=auto;html=1;" parent="gT47b8apnjhMk8HdocSW-37" source="gT47b8apnjhMk8HdocSW-53" target="gT47b8apnjhMk8HdocSW-59" edge="1">
          <mxGeometry relative="1" as="geometry" />
        </mxCell>
        <mxCell id="gT47b8apnjhMk8HdocSW-53" value="Renova o prazo de expiração para data estipulada pelo fornecedor" style="rounded=1;whiteSpace=wrap;html=1;fontSize=12;glass=0;strokeWidth=1;shadow=0;" parent="gT47b8apnjhMk8HdocSW-37" vertex="1">
          <mxGeometry x="810" y="710" width="130" height="60" as="geometry" />
        </mxCell>
        <mxCell id="gT47b8apnjhMk8HdocSW-44" style="edgeStyle=orthogonalEdgeStyle;rounded=0;orthogonalLoop=1;jettySize=auto;html=1;" parent="gT47b8apnjhMk8HdocSW-37" source="gT47b8apnjhMk8HdocSW-45" target="gT47b8apnjhMk8HdocSW-53" edge="1">
          <mxGeometry relative="1" as="geometry" />
        </mxCell>
        <mxCell id="gT47b8apnjhMk8HdocSW-54" value="Fornecedor recebe informação de que o código foi ativado&lt;br&gt;+ data de ativação" style="rounded=1;whiteSpace=wrap;html=1;fontSize=12;glass=0;strokeWidth=1;shadow=0;" parent="gT47b8apnjhMk8HdocSW-37" vertex="1">
          <mxGeometry x="811" y="295" width="130" height="90" as="geometry" />
        </mxCell>
        <mxCell id="gT47b8apnjhMk8HdocSW-55" value="" style="endArrow=none;dashed=1;html=1;rounded=0;entryX=0;entryY=0.5;entryDx=0;entryDy=0;exitX=1;exitY=0.5;exitDx=0;exitDy=0;" parent="gT47b8apnjhMk8HdocSW-37" source="gT47b8apnjhMk8HdocSW-42" target="gT47b8apnjhMk8HdocSW-54" edge="1">
          <mxGeometry width="50" height="50" relative="1" as="geometry">
            <mxPoint x="690" y="310" as="sourcePoint" />
            <mxPoint x="740" y="260" as="targetPoint" />
          </mxGeometry>
        </mxCell>
        <mxCell id="gT47b8apnjhMk8HdocSW-63" style="edgeStyle=orthogonalEdgeStyle;rounded=0;orthogonalLoop=1;jettySize=auto;html=1;" parent="gT47b8apnjhMk8HdocSW-37" source="gT47b8apnjhMk8HdocSW-59" target="gT47b8apnjhMk8HdocSW-62" edge="1">
          <mxGeometry relative="1" as="geometry" />
        </mxCell>
        <mxCell id="gT47b8apnjhMk8HdocSW-64" value="Sim" style="edgeLabel;html=1;align=center;verticalAlign=middle;resizable=0;points=[];" parent="gT47b8apnjhMk8HdocSW-63" vertex="1" connectable="0">
          <mxGeometry x="-0.2578" y="1" relative="1" as="geometry">
            <mxPoint as="offset" />
          </mxGeometry>
        </mxCell>
        <mxCell id="gT47b8apnjhMk8HdocSW-66" style="edgeStyle=orthogonalEdgeStyle;rounded=0;orthogonalLoop=1;jettySize=auto;html=1;entryX=0.5;entryY=0;entryDx=0;entryDy=0;" parent="gT47b8apnjhMk8HdocSW-37" source="gT47b8apnjhMk8HdocSW-59" edge="1">
          <mxGeometry relative="1" as="geometry">
            <mxPoint x="257.48" y="900" as="targetPoint" />
          </mxGeometry>
        </mxCell>
        <mxCell id="gT47b8apnjhMk8HdocSW-68" value="Não" style="edgeLabel;html=1;align=center;verticalAlign=middle;resizable=0;points=[];" parent="gT47b8apnjhMk8HdocSW-66" vertex="1" connectable="0">
          <mxGeometry x="-0.2197" relative="1" as="geometry">
            <mxPoint as="offset" />
          </mxGeometry>
        </mxCell>
        <mxCell id="gT47b8apnjhMk8HdocSW-59" value="Scheduled checa o &lt;br&gt;prazo de expiração &lt;br&gt;do cupom:&lt;br&gt;EXPIROU?" style="rhombus;whiteSpace=wrap;html=1;" parent="gT47b8apnjhMk8HdocSW-37" vertex="1">
          <mxGeometry x="139.98000000000002" y="680" width="235" height="120" as="geometry" />
        </mxCell>
        <mxCell id="gT47b8apnjhMk8HdocSW-62" value="Update na tabela RaffledCodes (expired: true) em todos os códigos que o cliente possui daquele fornecedor" style="rounded=1;whiteSpace=wrap;html=1;fontSize=10;glass=0;strokeWidth=1;shadow=0;" parent="gT47b8apnjhMk8HdocSW-37" vertex="1">
          <mxGeometry x="182.48000000000002" y="545" width="150" height="80" as="geometry" />
        </mxCell>
        <mxCell id="gT47b8apnjhMk8HdocSW-72" style="edgeStyle=orthogonalEdgeStyle;rounded=0;orthogonalLoop=1;jettySize=auto;html=1;entryX=0;entryY=0.5;entryDx=0;entryDy=0;exitX=0;exitY=0.5;exitDx=0;exitDy=0;" parent="gT47b8apnjhMk8HdocSW-37" source="gT47b8apnjhMk8HdocSW-67" target="gT47b8apnjhMk8HdocSW-59" edge="1">
          <mxGeometry relative="1" as="geometry" />
        </mxCell>
        <mxCell id="gT47b8apnjhMk8HdocSW-73" value="Não" style="edgeLabel;html=1;align=center;verticalAlign=middle;resizable=0;points=[];" parent="gT47b8apnjhMk8HdocSW-72" vertex="1" connectable="0">
          <mxGeometry x="-0.0977" relative="1" as="geometry">
            <mxPoint as="offset" />
          </mxGeometry>
        </mxCell>
        <mxCell id="gT47b8apnjhMk8HdocSW-75" value="Sim" style="edgeStyle=orthogonalEdgeStyle;rounded=0;orthogonalLoop=1;jettySize=auto;html=1;entryX=0;entryY=0.5;entryDx=0;entryDy=0;exitX=1;exitY=0.5;exitDx=0;exitDy=0;" parent="gT47b8apnjhMk8HdocSW-37" source="gT47b8apnjhMk8HdocSW-67" target="gT47b8apnjhMk8HdocSW-74" edge="1">
          <mxGeometry relative="1" as="geometry">
            <mxPoint x="397" y="840" as="sourcePoint" />
          </mxGeometry>
        </mxCell>
        <mxCell id="gT47b8apnjhMk8HdocSW-67" value="Cliente tem 10 códigos ativados?" style="rhombus;whiteSpace=wrap;html=1;" parent="gT47b8apnjhMk8HdocSW-37" vertex="1">
          <mxGeometry x="139.98000000000002" y="900" width="235" height="120" as="geometry" />
        </mxCell>
        <mxCell id="gT47b8apnjhMk8HdocSW-78" style="edgeStyle=orthogonalEdgeStyle;rounded=0;orthogonalLoop=1;jettySize=auto;html=1;entryX=0;entryY=0.5;entryDx=0;entryDy=0;" parent="gT47b8apnjhMk8HdocSW-37" source="gT47b8apnjhMk8HdocSW-74" target="gT47b8apnjhMk8HdocSW-77" edge="1">
          <mxGeometry relative="1" as="geometry" />
        </mxCell>
        <mxCell id="gT47b8apnjhMk8HdocSW-74" value="Gera um código único para o cliente, efetivando que o mesmo possui 10 cupons ativos e salva o código na tabela WinnerCodes" style="rounded=1;whiteSpace=wrap;html=1;fontSize=11;glass=0;strokeWidth=1;shadow=0;" parent="gT47b8apnjhMk8HdocSW-37" vertex="1">
          <mxGeometry x="430" y="810" width="190" height="60" as="geometry" />
        </mxCell>
        <mxCell id="gT47b8apnjhMk8HdocSW-82" style="edgeStyle=orthogonalEdgeStyle;rounded=0;orthogonalLoop=1;jettySize=auto;html=1;entryX=0;entryY=0.5;entryDx=0;entryDy=0;" parent="gT47b8apnjhMk8HdocSW-37" source="gT47b8apnjhMk8HdocSW-77" target="gT47b8apnjhMk8HdocSW-79" edge="1">
          <mxGeometry relative="1" as="geometry" />
        </mxCell>
        <mxCell id="gT47b8apnjhMk8HdocSW-77" value="Fornecedor é informado de que o cliente atingiu a meta" style="rounded=1;whiteSpace=wrap;html=1;fontSize=12;glass=0;strokeWidth=1;shadow=0;" parent="gT47b8apnjhMk8HdocSW-37" vertex="1">
          <mxGeometry x="652.02" y="810" width="130" height="60" as="geometry" />
        </mxCell>
        <mxCell id="gT47b8apnjhMk8HdocSW-84" style="edgeStyle=orthogonalEdgeStyle;rounded=0;orthogonalLoop=1;jettySize=auto;html=1;entryX=0.5;entryY=0;entryDx=0;entryDy=0;" parent="gT47b8apnjhMk8HdocSW-37" source="gT47b8apnjhMk8HdocSW-79" target="gT47b8apnjhMk8HdocSW-83" edge="1">
          <mxGeometry relative="1" as="geometry" />
        </mxCell>
        <mxCell id="gT47b8apnjhMk8HdocSW-79" value="Cliente envia código ao fornecedor, solicitando o prêmio" style="rounded=1;whiteSpace=wrap;html=1;fontSize=12;glass=0;strokeWidth=1;shadow=0;" parent="gT47b8apnjhMk8HdocSW-37" vertex="1">
          <mxGeometry x="820" y="810" width="130" height="60" as="geometry" />
        </mxCell>
        <mxCell id="gT47b8apnjhMk8HdocSW-86" style="edgeStyle=orthogonalEdgeStyle;rounded=0;orthogonalLoop=1;jettySize=auto;html=1;entryX=0.5;entryY=0;entryDx=0;entryDy=0;" parent="gT47b8apnjhMk8HdocSW-37" source="gT47b8apnjhMk8HdocSW-83" target="gT47b8apnjhMk8HdocSW-85" edge="1">
          <mxGeometry relative="1" as="geometry" />
        </mxCell>
        <mxCell id="gT47b8apnjhMk8HdocSW-83" value="Fornecedor valida via API se o código é válido e se o cliente tem 10 cupons ativos" style="rounded=1;whiteSpace=wrap;html=1;fontSize=12;glass=0;strokeWidth=1;shadow=0;" parent="gT47b8apnjhMk8HdocSW-37" vertex="1">
          <mxGeometry x="820" y="910" width="130" height="60" as="geometry" />
        </mxCell>
        <mxCell id="gT47b8apnjhMk8HdocSW-85" value="Cliente recebe o prêmio" style="rounded=1;whiteSpace=wrap;html=1;fontSize=12;glass=0;strokeWidth=1;shadow=0;" parent="gT47b8apnjhMk8HdocSW-37" vertex="1">
          <mxGeometry x="820" y="1020" width="130" height="60" as="geometry" />
        </mxCell>
      </root>
    </mxGraphModel>
  </diagram>
</mxfile>
